<?xml version="1.0" encoding="UTF-8"?>
<svg width="19px" height="19px" viewBox="0 0 19 19" version="1.1" xmlns="http://www.w3.org/2000/svg" xmlns:xlink="http://www.w3.org/1999/xlink">
    <!-- Generator: Sketch 45.2 (43514) - http://www.bohemiancoding.com/sketch -->
    <title>Checkbox</title>
    <desc>Created with Sketch.</desc>
    <defs></defs>
    <g id="Symbols" stroke="none" stroke-width="1" fill="none" fill-rule="evenodd" fill-opacity="0.75">
        <g id="Option" transform="translate(-263.000000, -10.000000)" fill="#FFFFFF">
            <g id="Checkbox-Copy-2">
                <g transform="translate(22.000000, 10.000000)">
                    <g id="Checkbox" transform="translate(241.000000, 0.000000)">
                        <path d="M9.41206675,18.874611 C4.22209628,18.874611 0,14.6413323 0,9.43730551 C0,4.23327869 4.22209628,0 9.41206675,0 C14.6020372,0 18.8241335,4.23327869 18.8241335,9.43730551 C18.8241335,14.6413323 14.6020372,18.874611 9.41206675,18.874611 Z M9.41206675,2.09700447 C5.37585879,2.09700447 2.09183184,5.39016542 2.09183184,9.43730551 C2.09183184,13.4844456 5.37585879,16.7776066 9.41206675,16.7776066 C13.4490591,16.7776066 16.7323017,13.4844456 16.7323017,9.43730551 C16.7323017,5.39016542 13.4490591,2.09700447 9.41206675,2.09700447 Z M9.49442234,12.2128912 C9.35167266,12.3566185 9.17362773,12.431231 8.99009243,12.4744277 C8.82302824,12.5773145 8.64184596,12.6472146 8.45282028,12.6472146 C8.18457638,12.6472146 7.91711682,12.5443279 7.7131887,12.3401252 L5.14683184,9.76638599 C4.73819127,9.35719523 4.73819127,8.69353651 5.14683184,8.28356036 C5.55468806,7.8743696 6.21667009,7.8743696 6.62531065,8.28356036 L8.54066624,10.203851 L12.1988228,6.53527124 C12.6074634,6.12529508 13.2694454,6.12529508 13.6773017,6.53527124 C14.0859422,6.944462 14.0859422,7.60890611 13.6773017,8.01809687 L9.49442234,12.2128912 Z" id="Shape"></path>
                    </g>
                </g>
            </g>
        </g>
    </g>
</svg>