<?xml version="1.0" encoding="UTF-8"?>
<svg width="642px" height="226px" viewBox="0 0 642 226" version="1.1" xmlns="http://www.w3.org/2000/svg" xmlns:xlink="http://www.w3.org/1999/xlink">
    <!-- Generator: Sketch 45.2 (43514) - http://www.bohemiancoding.com/sketch -->
    <title>Page 1</title>
    <desc>Created with Sketch.</desc>
    <defs></defs>
    <g id="Page-1" stroke="none" stroke-width="1" fill="none" fill-rule="evenodd">
        <g transform="translate(3.000000, -1.000000)">
            <path d="M42.0887,202.2788 C42.0887,213.7808 32.7717,223.0998 21.2757,223.0998 C9.7807,223.0998 0.4547,213.7808 0.4547,202.2788 C0.4547,190.7828 9.7807,181.4638 21.2757,181.4638 C32.7717,181.4638 42.0887,190.7828 42.0887,202.2788 Z" id="Stroke-1" stroke="#E11B22" stroke-width="6.91" stroke-linecap="round" stroke-linejoin="round"></path>
            <polyline id="Stroke-3" stroke="#E11B22" stroke-width="6.91" stroke-linecap="round" stroke-linejoin="round" points="45.1339 202.2788 78.1299 202.2788 78.1299 134.0968 185.9349 134.0968"></polyline>
            <path d="M172.1706,117.0923 L190.4276,134.2653" id="Stroke-5" stroke="#E11B22" stroke-width="6.91" stroke-linecap="round" stroke-linejoin="round"></path>
            <path d="M172.1706,151.4399 L190.4276,134.2649" id="Stroke-7" stroke="#E11B22" stroke-width="6.91" stroke-linecap="round" stroke-linejoin="round"></path>
            <path d="M42.1943,107.4321 L11.4643,138.1651 M11.4643,107.4321 L42.1943,138.1651 M110.8053,76.7021 L80.0773,107.4321 M80.0773,76.7021 L110.8053,107.4321 M139.0823,163.0571 L108.3543,193.7851 M108.3543,163.0571 L139.0823,193.7851" id="Stroke-9" stroke="#4D4F53" stroke-width="6.91" stroke-linecap="round" stroke-linejoin="round"></path>
            <g id="Group-13" transform="translate(225.000000, 0.555000)" fill="#4D4F53">
                <polygon id="Path" points="110.804 0.6203 110.804 6.6203 114.583 6.6203 108.506 18.6203 108.404 18.6203 102.327 6.6203 105.804 6.6203 105.804 0.6203 91.804 0.6203 91.804 6.6203 94.922 6.6203 104.804 25.3043 104.804 30.6203 101.804 30.6203 101.804 35.6203 114.804 35.6203 114.804 30.6203 111.804 30.6203 111.804 25.3043 121.962 6.6203 123.804 6.6203 123.804 0.6203"></polygon>
                <polygon id="Path" points="91.804 30.6203 80.804 30.6203 80.804 6.6203 83.804 6.6203 83.804 0.6203 70.804 0.6203 70.804 6.6203 73.804 6.6203 73.804 30.6203 70.804 30.6203 70.804 35.6203 97.804 35.6203 97.804 26.6203 91.804 26.6203"></polygon>
                <polygon id="Path" points="55.804 6.6203 58.804 6.6203 58.804 23.6203 58.702 23.6203 44.237 0.6203 34.804 0.6203 34.804 6.6203 37.804 6.6203 37.804 30.6203 34.804 30.6203 34.804 35.6203 47.804 35.6203 47.804 30.6203 44.804 30.6203 44.804 13.6203 44.905 13.6203 58.721 35.6203 65.804 35.6203 65.804 6.6203 68.804 6.6203 68.804 0.6203 55.804 0.6203"></polygon>
                <path d="M0.803,18.0853 C0.803,8.2683 4.075,0.4443 16.295,0.4443 C28.516,0.4443 31.737,8.2683 31.737,18.0853 C31.737,28.0053 28.516,36.2373 16.295,36.2373 C4.075,36.2373 0.803,28.0053 0.803,18.0853 Z M8.217,18.0853 C8.217,24.9883 9.444,30.7663 16.295,30.7663 C23.147,30.7663 24.323,24.9883 24.323,18.0853 C24.323,11.1833 23.147,5.9673 16.295,5.9673 C9.444,5.9673 8.217,11.1833 8.217,18.0853 Z" id="Combined-Shape"></path>
            </g>
            <path d="M225.8024,211.9292 C242.2634,220.2472 258.4854,223.1002 277.5704,223.1002 C314.5474,223.1002 334.3484,206.7002 334.3484,177.9432 C334.3484,158.2152 321.4654,142.5302 298.8024,138.0132 L298.8024,137.1002 C316.4214,131.1582 329.5164,118.3242 329.5164,98.5972 C329.5164,71.5022 309.7544,56.2912 279.9934,56.2912 C263.0884,56.2912 245.4694,59.6192 228.8024,67.7002 L228.8024,96.6962 L245.8024,96.6962 L245.8024,80.3412 C255.1714,76.5382 264.6784,74.1612 276.0874,74.1612 C301.9934,74.1612 307.6974,90.3232 307.6974,101.0182 C307.6974,115.5162 297.7154,130.7272 272.2844,130.6962 L252.8024,130.6962 L252.8024,148.6962 L273.2344,148.6962 C299.6164,148.5522 311.7374,159.4862 311.7374,176.3602 C311.7374,186.5792 307.2224,204.8802 276.0874,204.8802 C263.9654,204.8802 252.7954,202.9792 242.8024,199.1762 L242.8024,182.6962 L225.8024,182.6962 L225.8024,211.9292 Z" id="Fill-14" fill="#E11B22"></path>
            <path d="M373.5295,149.978 C381.1355,139.284 392.0675,130.965 404.9025,130.965 C431.2835,130.965 437.2255,151.88 437.2255,168.041 C437.2255,192.284 422.4895,204.88 405.6155,204.88 C377.0945,204.88 372.1035,177.548 373.5295,149.978 L373.5295,149.978 Z M371.0425,132.387 C371.2825,107.194 385.2025,73.682 419.2825,73.682 C426.2425,73.682 431.0425,74.633 436.8025,75.821 L436.8025,92.696 L454.8025,92.696 L454.8025,62.037 C443.7625,58.471 433.2025,55.857 417.6025,55.857 C380.6425,55.857 349.4425,77.248 349.4425,148.548 C349.4425,186.338 362.8825,222.226 406.5625,222.226 C437.0425,222.226 459.8425,201.787 459.8425,167.562 C459.8425,131.912 441.1225,111.709 409.9225,111.709 C394.5625,111.709 380.6425,120.266 371.5225,132.624 L371.0425,132.387 Z" id="Fill-16" fill="#E11B22"></path>
            <path d="M605.7314,208.4458 C593.3724,208.4458 586.7174,200.3648 586.7174,186.1048 C586.7174,171.8438 593.3724,163.7628 605.7314,163.7628 C618.0904,163.7628 624.5074,171.8438 624.5074,186.1048 C624.5074,200.3648 618.0904,208.4458 605.7314,208.4458 L605.7314,208.4458 Z M605.7314,219.1408 C626.6464,219.1408 638.0544,206.5448 638.0544,186.1048 C638.0544,165.6648 626.6464,152.8308 605.7314,152.8308 C584.5784,152.8308 573.4084,165.6648 573.4084,186.1048 C573.4084,206.5448 584.5784,219.1408 605.7314,219.1408 L605.7314,219.1408 Z M511.1384,115.5158 C498.7794,115.5158 492.1244,107.4348 492.1244,93.1748 C492.1244,78.9148 498.7794,70.8348 511.1384,70.8348 C523.4974,70.8348 529.9144,78.9148 529.9144,93.1748 C529.9144,107.4348 523.4974,115.5158 511.1384,115.5158 L511.1384,115.5158 Z M511.1384,126.2118 C532.0534,126.2118 543.4614,113.6148 543.4614,93.1748 C543.4614,72.7358 532.0534,59.9008 511.1384,59.9008 C489.9854,59.9008 478.8154,72.7358 478.8154,93.1748 C478.8154,113.6148 489.9854,126.2118 511.1384,126.2118 L511.1384,126.2118 Z M609.6554,58.6958 L595.3614,58.6958 L507.2144,220.6958 L521.5084,220.6958 L609.6554,58.6958 Z" id="Fill-18" fill="#E11B22"></path>
        </g>
    </g>
</svg>