<?xml version="1.0" encoding="UTF-8"?>
<svg width="17px" height="18px" viewBox="0 0 17 18" version="1.1" xmlns="http://www.w3.org/2000/svg" xmlns:xlink="http://www.w3.org/1999/xlink">
    <!-- Generator: Sketch 45.2 (43514) - http://www.bohemiancoding.com/sketch -->
    <title>Shape</title>
    <desc>Created with Sketch.</desc>
    <defs></defs>
    <g id="Interface" stroke="none" stroke-width="1" fill="none" fill-rule="evenodd">
        <g id="Free-Adventure-Notes" transform="translate(-42.000000, -97.000000)" fill="#FFFFFF">
            <g id="Sidebar" transform="translate(20.000000, 20.000000)">
                <path d="M38.7448511,94.1860119 C38.5722965,94.3587988 38.3464069,94.4451923 38.1213017,94.4451923 C37.8954121,94.4451923 37.6695225,94.3587988 37.4969679,94.1860119 L32.9721168,89.6558539 C31.8371784,90.4608838 30.4551733,90.9391893 28.9610077,90.9391893 C25.1224531,90.9391893 22,87.812532 22,83.9695946 C22,80.1266572 25.1224531,77 28.9610077,77 C32.7995623,77 35.9220154,80.1266572 35.9220154,83.9695946 C35.9220154,85.6801848 35.300819,87.2470477 34.2749037,88.4612683 L38.7448511,92.937234 C39.0891759,93.2820224 39.0891759,93.8412235 38.7448511,94.1860119 Z M28.9610077,78.7663532 C26.0958177,78.7663532 23.7647625,81.1005469 23.7647625,83.9695946 C23.7647625,86.8378569 26.0958177,89.1720507 28.9610077,89.1720507 C31.8261977,89.1720507 34.1572529,86.8378569 34.1572529,83.9695946 C34.1572529,81.1005469 31.8261977,78.7663532 28.9610077,78.7663532 Z" id="Shape"></path>
            </g>
        </g>
    </g>
</svg>