<?xml version="1.0" encoding="UTF-8"?>
<svg width="249px" height="19px" viewBox="0 0 249 19" version="1.1" xmlns="http://www.w3.org/2000/svg" xmlns:xlink="http://www.w3.org/1999/xlink">
    <!-- Generator: Sketch 45.2 (43514) - http://www.bohemiancoding.com/sketch -->
    <title>Logo</title>
    <desc>Created with Sketch.</desc>
    <defs></defs>
    <g id="Symbols" stroke="none" stroke-width="1" fill="none" fill-rule="evenodd">
        <g id="Logo" fill="#FFFFFF">
            <path d="M4.93689595,14.2303326 L3.80417003,18.0532826 L0.288,18.0532826 L5.76284193,1.06239383 L9.72738263,1.06239383 L15.2022246,18.0532826 L11.5444638,18.0532826 L10.4353363,14.2303326 L4.93689595,14.2303326 Z M7.72151382,4.79094997 L5.88083421,11.0209425 L9.51499652,11.0209425 L7.72151382,4.79094997 Z M18.7551033,1.06239383 L27.6045245,1.06239383 C29.5867949,1.06239383 30.9555053,2.43110431 30.9555053,4.41337466 L30.9555053,14.7023017 C30.9555053,16.6845721 29.5867949,18.0532826 27.6045245,18.0532826 L18.7551033,18.0532826 L18.7551033,1.06239383 Z M22.153281,14.8438925 L26.7549801,14.8438925 C27.2741461,14.8438925 27.5573276,14.560711 27.5573276,14.0415449 L27.5573276,5.07413144 C27.5573276,4.5549654 27.2741461,4.27178392 26.7549801,4.27178392 L22.153281,4.27178392 L22.153281,14.8438925 Z M48.1718904,1.06239383 L44.3961374,1.06239383 L41.0215581,13.9707496 L37.7413726,1.06239383 L33.8712258,1.06239383 L39.0392877,18.0532826 L43.0038285,18.0532826 L48.1718904,1.06239383 Z M51.7719661,1.06239383 L51.7719661,18.0532826 L62.8868391,18.0532826 L62.8868391,14.8438925 L55.1701438,14.8438925 L55.1701438,10.9737456 L61.4237348,10.9737456 L61.4237348,7.76435549 L55.1701438,7.76435549 L55.1701438,4.27178392 L62.8868391,4.27178392 L62.8868391,1.06239383 L51.7719661,1.06239383 Z M77.1062203,1.06239383 L77.1062203,12.649236 L70.8526293,1.06239383 L67.1948685,1.06239383 L67.1948685,18.0532826 L70.3806601,18.0532826 L70.3806601,6.46644038 L76.6342511,18.0532826 L80.2920119,18.0532826 L80.2920119,1.06239383 L77.1062203,1.06239383 Z M96.3284742,4.22458701 L96.3284742,1.06239383 L84.0572767,1.06239383 L84.0572767,4.22458701 L88.4937866,4.22458701 L88.4937866,18.0532826 L91.8919643,18.0532826 L91.8919643,4.22458701 L96.3284742,4.22458701 Z M111.963763,1.06239383 L108.565585,1.06239383 L108.565585,14.1359388 C108.565585,14.6551048 108.282403,14.9382863 107.763237,14.9382863 L104.034681,14.9382863 C103.515515,14.9382863 103.232334,14.6551048 103.232334,14.1359388 L103.232334,1.06239383 L99.834156,1.06239383 L99.834156,14.7966956 C99.834156,16.7789659 101.202866,18.1476764 103.185137,18.1476764 L108.612782,18.1476764 C110.595052,18.1476764 111.963763,16.7789659 111.963763,14.7966956 L111.963763,1.06239383 Z M129.274542,18.0532826 L125.616781,18.0532826 L122.87936,11.7524947 L120.141939,11.7524947 L120.141939,18.0532826 L116.743761,18.0532826 L116.743761,1.06239383 L125.404395,1.06239383 C127.386665,1.06239383 128.755376,2.43110431 128.755376,4.41337466 L128.755376,8.40151382 C128.755376,10.0062089 127.858634,11.2097302 126.442727,11.6109039 L129.274542,18.0532826 Z M125.357198,7.78795395 L125.357198,5.07413144 C125.357198,4.5549654 125.074016,4.27178392 124.55485,4.27178392 L120.141939,4.27178392 L120.141939,8.59030147 L124.55485,8.59030147 C125.074016,8.59030147 125.357198,8.30711999 125.357198,7.78795395 Z M133.393783,1.06239383 L133.393783,18.0532826 L144.508656,18.0532826 L144.508656,14.8438925 L136.791961,14.8438925 L136.791961,10.9737456 L143.045552,10.9737456 L143.045552,7.76435549 L136.791961,7.76435549 L136.791961,4.27178392 L144.508656,4.27178392 L144.508656,1.06239383 L133.393783,1.06239383 Z M156.357704,1.06239383 L156.357704,18.0532826 L166.882615,18.0532826 L166.882615,14.8438925 L159.755881,14.8438925 L159.755881,1.06239383 L156.357704,1.06239383 Z M173.338104,0.968 L179.025332,0.968 C181.007603,0.968 182.376313,2.33671048 182.376313,4.31898083 L182.376313,14.7966956 C182.376313,16.7789659 181.007603,18.1476764 179.025332,18.1476764 L173.338104,18.1476764 C171.355834,18.1476764 169.987123,16.7789659 169.987123,14.7966956 L169.987123,4.31898083 C169.987123,2.33671048 171.355834,0.968 173.338104,0.968 Z M178.978135,14.1359388 L178.978135,4.97973762 C178.978135,4.46057157 178.694954,4.17739009 178.175788,4.17739009 L174.187649,4.17739009 C173.668483,4.17739009 173.385301,4.46057157 173.385301,4.97973762 L173.385301,14.1359388 C173.385301,14.6551048 173.668483,14.9382863 174.187649,14.9382863 L178.175788,14.9382863 C178.694954,14.9382863 178.978135,14.6551048 178.978135,14.1359388 Z M189.964528,0.968 L195.651756,0.968 C197.634026,0.968 199.002737,2.33671048 199.002737,4.31898083 L199.002737,14.7966956 C199.002737,16.7789659 197.634026,18.1476764 195.651756,18.1476764 L189.964528,18.1476764 C187.982257,18.1476764 186.613547,16.7789659 186.613547,14.7966956 L186.613547,4.31898083 C186.613547,2.33671048 187.982257,0.968 189.964528,0.968 Z M195.604559,14.1359388 L195.604559,4.97973762 C195.604559,4.46057157 195.321377,4.17739009 194.802211,4.17739009 L190.814072,4.17739009 C190.294906,4.17739009 190.011725,4.46057157 190.011725,4.97973762 L190.011725,14.1359388 C190.011725,14.6551048 190.294906,14.9382863 190.814072,14.9382863 L194.802211,14.9382863 C195.321377,14.9382863 195.604559,14.6551048 195.604559,14.1359388 Z M209.375569,10.6669657 L213.292913,18.0532826 L217.115863,18.0532826 L211.641021,7.76435549 L216.85628,1.06239383 L212.868141,1.06239383 L206.992125,9.03867215 L206.992125,1.06239383 L203.641144,1.06239383 L203.641144,18.0532826 L206.992125,18.0532826 L206.992125,13.7111666 L209.375569,10.6669657 Z M232.184789,1.06239383 L228.786611,1.06239383 L228.786611,14.1359388 C228.786611,14.6551048 228.503429,14.9382863 227.984263,14.9382863 L224.255707,14.9382863 C223.736541,14.9382863 223.45336,14.6551048 223.45336,14.1359388 L223.45336,1.06239383 L220.055182,1.06239383 L220.055182,14.7966956 C220.055182,16.7789659 221.423892,18.1476764 223.406163,18.1476764 L228.833808,18.1476764 C230.816078,18.1476764 232.184789,16.7789659 232.184789,14.7966956 L232.184789,1.06239383 Z M236.964787,1.06239383 L245.649019,1.06239383 C247.63129,1.06239383 249,2.43110431 249,4.41337466 L249,8.70829376 C249,10.6905641 247.63129,12.0592746 245.649019,12.0592746 L240.362965,12.0592746 L240.362965,18.0532826 L236.964787,18.0532826 L236.964787,1.06239383 Z M240.362965,8.8498845 L244.799475,8.8498845 C245.318641,8.8498845 245.601822,8.56670302 245.601822,8.04753697 L245.601822,5.07413144 C245.601822,4.5549654 245.318641,4.27178392 244.799475,4.27178392 L240.362965,4.27178392 L240.362965,8.8498845 Z"></path>
        </g>
    </g>
</svg>