<?xml version="1.0" encoding="UTF-8"?>
<svg width="249px" height="19px" viewBox="0 0 249 19" version="1.1" xmlns="http://www.w3.org/2000/svg" xmlns:xlink="http://www.w3.org/1999/xlink">
    <!-- Generator: Sketch 47 (45396) - http://www.bohemiancoding.com/sketch -->
    <title>Group</title>
    <desc>Created with Sketch.</desc>
    <defs>
        <polygon id="path-1" points="0 0.0788795518 0 17.8290196 15.8921143 17.8290196 15.8921143 0.0788795518"></polygon>
        <polygon id="path-3" points="13.6761143 0.0784313725 0.7504 0.0784313725 0.7504 17.9270588 13.6761143 17.9270588 13.6761143 0.0784313725"></polygon>
        <polygon id="path-5" points="9.31160029e-20 0.0751820728 9.31160029e-20 3.63080772 4.58805669 3.63080772 4.58805669 0.0751820728 0 0.0751820728"></polygon>
        <polygon id="path-7" points="12.9230952 17.8285714 12.9230952 0.0784313725 0.0729637188 0.0784313725 0.0729637188 17.8285714 12.9230952 17.8285714"></polygon>
    </defs>
    <g id="Interface" stroke="none" stroke-width="1" fill="none" fill-rule="evenodd">
        <g id="Home-Page" transform="translate(-45.000000, -40.000000)">
            <g id="Group" transform="translate(45.000000, 40.000000)">
                <g id="Page-1" transform="translate(0.000000, 0.952381)">
                    <path d="M21.8948571,3.70666667 L21.8068571,3.72459384 C20.7417143,3.75260504 19.736,3.40302521 18.944,2.78341737 C18.28,2.26464986 17.7668571,1.55652661 17.4948571,0.720672269 L17.3154286,0.170532213 L21.8948571,0.170532213 L21.8948571,3.70666667 Z" id="Fill-1" fill="#FFFFFF"></path>
                    <path d="M7.92937143,3.70666667 L7.84251429,3.72459384 C6.77622857,3.75260504 5.77051429,3.40302521 4.97851429,2.78341737 C4.31451429,2.26464986 3.80137143,1.55652661 3.52937143,0.720672269 L3.35108571,0.170532213 L7.92937143,0.170532213 L7.92937143,3.70666667 Z" id="Fill-3" fill="#FFFFFF"></path>
                    <g id="Group-7" transform="translate(0.000000, 0.089300)">
                        <mask id="mask-2" fill="white">
                            <use xlink:href="#path-1"></use>
                        </mask>
                        <g id="Clip-6"></g>
                        <path d="M5.95954286,10.4822409 L9.83154286,10.4822409 L7.92068571,3.97355742 L5.95954286,10.4822409 Z M1.89097143,17.8290196 L-0.000457142857,17.8290196 L5.83382857,0.0811204482 L8.50582857,0.0788795518 C9.43154286,0.0788795518 10.2509714,0.663753501 10.5344,1.52761905 L15.8921143,17.8290196 L14.3275429,17.8290196 C12.9458286,17.8290196 11.7298286,16.9337815 11.3446857,15.6329412 L10.8132571,13.8346218 L4.95382857,13.8346218 L4.27382857,16.0844818 C3.96068571,17.1186555 2.99154286,17.8290196 1.89097143,17.8290196 L1.89097143,17.8290196 Z" id="Fill-5" fill="#FFFFFF" mask="url(#mask-2)"></path>
                    </g>
                    <path d="M41.7899429,17.9178711 L40.1590857,17.9178711 C39.3830857,17.9178711 38.6973714,17.4203922 38.4710857,16.6909804 L33.3442286,0.167731092 L34.8493714,0.167731092 C36.3899429,0.167731092 37.7339429,1.19294118 38.1133714,2.6562465 L40.9636571,13.6523249 L43.9510857,2.45232493 C44.3099429,1.10666667 45.5499429,0.167731092 46.9682286,0.167731092 L48.5830857,0.167731092 L43.4505143,16.7111485 C43.2276571,17.4282353 42.5533714,17.9178711 41.7899429,17.9178711" id="Fill-8" fill="#FFFFFF"></path>
                    <path d="M89.5795429,3.47137255 L89.5795429,17.9184314 C87.5795429,17.9184314 85.9589714,16.3285154 85.9589714,14.3677311 L85.9589714,3.47137255 L84.6012571,3.47137255 C82.7406857,3.47137255 81.2309714,1.99238095 81.2309714,0.168291317 L94.3075429,0.168291317 C94.3075429,1.99238095 92.7989714,3.47137255 90.9372571,3.47137255 L89.5795429,3.47137255 Z" id="Fill-10" fill="#FFFFFF"></path>
                    <g id="Group-14" transform="translate(94.857143, 0.089300)">
                        <mask id="mask-4" fill="white">
                            <use xlink:href="#path-3"></use>
                        </mask>
                        <g id="Clip-13"></g>
                        <path d="M13.6761143,14.4267787 C13.6761143,16.3606723 12.0784,17.9270588 10.1058286,17.9270588 L4.32182857,17.9270588 C2.34925714,17.9270588 0.7504,16.3595518 0.7504,14.4267787 L0.7504,0.0783193277 C2.7504,0.0783193277 4.37211429,1.66823529 4.37211429,3.62901961 L4.37211429,13.7365826 C4.37211429,14.1993277 4.75497143,14.5746779 5.22697143,14.5746779 L9.19954286,14.5746779 C9.67268571,14.5746779 10.0555429,14.1993277 10.0555429,13.7365826 L10.0555429,0.0783193277 C12.0555429,0.0783193277 13.6761143,1.66823529 13.6761143,3.62901961 L13.6761143,14.4267787 Z" id="Fill-12" fill="#FFFFFF" mask="url(#mask-4)"></path>
                    </g>
                    <path d="M27.0176,14.5653782 C27.5707429,14.5653782 27.8724571,14.2695798 27.8724571,13.7272829 L27.8724571,4.35921569 C27.8724571,3.81579832 27.5707429,3.52112045 27.0176,3.52112045 L22.1136,3.52112045 L22.1136,14.5653782 L27.0176,14.5653782 Z M27.9227429,0.170980392 C30.0358857,0.170980392 31.4941714,1.59843137 31.4941714,3.66789916 L31.4941714,14.417479 C31.4941714,16.4880672 30.0358857,17.9177591 27.9227429,17.9177591 L18.4930286,17.9143978 L18.4930286,0.170980392 L27.9227429,0.170980392 Z" id="Fill-15" fill="#FFFFFF"></path>
                    <path d="M21.5377143,3.70666667 L21.4497143,3.72459384 C20.3845714,3.75260504 19.3788571,3.40302521 18.5868571,2.78341737 C17.9228571,2.26464986 17.4097143,1.55652661 17.1377143,0.720672269 L16.9582857,0.170532213 L21.5377143,0.170532213 L21.5377143,3.70666667 Z" id="Fill-17" fill="#FFFFFF"></path>
                    <path d="M21.5377143,17.9146218 L16.9582857,17.9146218 L17.1377143,17.3644818 C17.4097143,16.5297479 17.9228571,15.8205042 18.5868571,15.3017367 C19.3788571,14.6832493 20.3845714,14.3336695 21.4497143,14.3616807 L21.5377143,14.3784874 L21.5377143,17.9146218 Z" id="Fill-19" fill="#FFFFFF"></path>
                    <path d="M63.0778286,0.169635854 L63.0778286,0.169635854 C63.0778286,2.02173669 61.5475429,3.52089636 59.6584,3.52089636 L54.8549714,3.52089636 L54.8549714,7.17019608 L61.5189714,7.17019608 C61.5189714,9.02117647 59.9886857,10.522577 58.0995429,10.522577 L54.8549714,10.522577 L54.8549714,14.5651541 L63.0778286,14.5651541 C63.0778286,16.4172549 61.5475429,17.9164146 59.6584,17.9164146 L51.2344,17.9164146 L51.2344,0.169635854 L63.0778286,0.169635854 Z" id="Fill-21" fill="#FFFFFF"></path>
                    <path d="M54.1102857,3.70666667 L54.0222857,3.72459384 C52.9571429,3.75260504 51.9514286,3.40302521 51.1594286,2.78341737 C50.4954286,2.26464986 49.9822857,1.55652661 49.7102857,0.720672269 L49.5308571,0.169411765 L54.1102857,0.169411765 L54.1102857,3.70666667 Z" id="Fill-23" fill="#FFFFFF"></path>
                    <path d="M54.1805714,17.9163025 L49.6011429,17.9163025 L49.7805714,17.3639216 C50.0525714,16.5291877 50.5657143,15.8210644 51.2297143,15.3022969 C52.0217143,14.6826891 53.0274286,14.3331092 54.0925714,14.3611204 L54.1805714,14.3790476 L54.1805714,17.9163025 Z" id="Fill-25" fill="#FFFFFF"></path>
                    <path d="M80.2257143,3.49658263 L80.2257143,17.9178711 L78.7662857,17.9178711 C77.2645714,17.9178711 75.884,17.110028 75.1697143,15.8147899 L69.6634286,5.81254902 L69.6634286,17.9178711 L66.2691429,17.9178711 L66.2691429,0.167731092 L69.2337143,0.167731092 C69.8085714,0.167731092 70.3377143,0.47697479 70.6108571,0.973333333 L76.8302857,12.2730532 L76.8302857,0.167731092 C78.7057143,0.167731092 80.2257143,1.65792717 80.2257143,3.49658263" id="Fill-27" fill="#FFFFFF"></path>
                    <path d="M69.2531429,3.70666667 L69.1651429,3.72459384 C68.1,3.75260504 67.0942857,3.40302521 66.3022857,2.78341737 C65.6382857,2.26464986 65.1251429,1.55652661 64.8531429,0.720672269 L64.6737143,0.170532213 L69.2531429,0.175014006 L69.2531429,3.70666667 Z" id="Fill-29" fill="#FFFFFF"></path>
                    <path d="M69.252,17.920112 L64.6725714,17.9245938 L64.852,17.3733333 C65.124,16.5385994 65.6371429,15.8293557 66.3011429,15.3105882 C67.0931429,14.6921008 68.0988571,14.342521 69.164,14.3705322 L69.252,14.3873389 L69.252,17.920112 Z" id="Fill-31" fill="#FFFFFF"></path>
                    <path d="M121.834629,4.35876751 C121.834629,3.81647059 121.532914,3.52067227 120.979771,3.52067227 L116.276914,3.52067227 L116.276914,8.03159664 L120.979771,8.03159664 C121.532914,8.03159664 121.834629,7.73691877 121.834629,7.1935014 L121.834629,4.35876751 Z M121.106629,15.6506443 L119.193486,11.3357983 L116.276914,11.3357983 L116.276914,17.9184314 L112.656343,17.9184314 L112.656343,0.168291317 L121.884914,0.168291317 C123.857486,0.168291317 125.4552,1.73579832 125.4552,3.66857143 L125.4552,7.83551821 C125.4552,9.51170868 124.499771,10.7688515 122.9912,11.1878992 L126.008343,17.9184314 L124.633486,17.9184314 C123.102057,17.9184314 121.715771,17.0276751 121.106629,15.6506443 L121.106629,15.6506443 Z" id="Fill-33" fill="#FFFFFF"></path>
                    <path d="M115.633714,3.70666667 L115.546857,3.72459384 C114.480571,3.75260504 113.474857,3.40302521 112.682857,2.78341737 C112.018857,2.26464986 111.505714,1.55652661 111.233714,0.720672269 L111.054286,0.170532213 L115.633714,0.175014006 L115.633714,3.70666667 Z" id="Fill-35" fill="#FFFFFF"></path>
                    <path d="M115.609143,17.9140616 L111.029714,17.9185434 L111.209143,17.3672829 C111.481143,16.532549 111.994286,15.8244258 112.658286,15.3045378 C113.450286,14.6860504 114.456,14.3364706 115.521143,14.3644818 L115.609143,14.382409 L115.609143,17.9140616 Z" id="Fill-37" fill="#FFFFFF"></path>
                    <path d="M141.770971,0.168067227 L141.770971,0.168067227 C141.770971,2.02016807 140.239543,3.52044818 138.351543,3.52044818 L133.548114,3.52044818 L133.548114,7.1697479 L140.213257,7.1697479 C140.213257,9.02184874 138.681829,10.5221289 136.793829,10.5221289 L133.548114,10.5221289 L133.548114,14.5658263 L141.770971,14.5658263 C141.770971,16.4168067 140.239543,17.9182073 138.351543,17.9182073 L129.927543,17.9182073 L129.927543,0.168067227 L141.770971,0.168067227 Z" id="Fill-39" fill="#FFFFFF"></path>
                    <path d="M132.848,3.70666667 L132.761143,3.72459384 C131.694857,3.75260504 130.689143,3.40302521 129.897143,2.78341737 C129.233143,2.26464986 128.72,1.55652661 128.448,0.720672269 L128.268571,0.170532213 L132.848,0.175014006 L132.848,3.70666667 Z" id="Fill-41" fill="#FFFFFF"></path>
                    <path d="M132.918857,17.9140616 L128.339429,17.9185434 L128.518857,17.3672829 C128.790857,16.532549 129.304,15.8244258 129.968,15.3045378 C130.76,14.6860504 131.765714,14.3364706 132.830857,14.3644818 L132.918857,14.382409 L132.918857,17.9140616 Z" id="Fill-43" fill="#FFFFFF"></path>
                </g>
                <g id="Page-1" transform="translate(153.333333, 0.000000)">
                    <path d="M24.4052415,4.19070028 C24.4052415,3.64840336 24.1029286,3.35260504 23.5486882,3.35260504 L19.2899694,3.35260504 C18.735729,3.35260504 18.4334161,3.64840336 18.4334161,4.19070028 L18.4334161,13.7559664 C18.4334161,14.2982633 18.735729,14.5940616 19.2899694,14.5940616 L23.5486882,14.5940616 C24.1029286,14.5940616 24.4052415,14.2982633 24.4052415,13.7559664 L24.4052415,4.19070028 Z M24.455627,0.000224089636 C26.5718175,0.000224089636 28.0329966,1.42879552 28.0329966,3.5005042 L28.0329966,14.4461625 C28.0329966,16.5178711 26.5718175,17.9464426 24.455627,17.9464426 L18.3830306,17.9464426 C16.2668401,17.9464426 14.805661,16.5178711 14.805661,14.4461625 L14.805661,3.5005042 C14.805661,1.42879552 16.2668401,0.000224089636 18.3830306,0.000224089636 L24.455627,0.000224089636 Z" id="Fill-1" fill="#FFFFFF"></path>
                    <path d="M41.2309025,4.19070028 C41.2309025,3.64840336 40.9285896,3.35260504 40.3743492,3.35260504 L36.1156304,3.35260504 C35.56139,3.35260504 35.2590771,3.64840336 35.2590771,4.19070028 L35.2590771,13.7559664 C35.2590771,14.2982633 35.56139,14.5940616 36.1156304,14.5940616 L40.3743492,14.5940616 C40.9285896,14.5940616 41.2309025,14.2982633 41.2309025,13.7559664 L41.2309025,4.19070028 Z M41.281288,0.000224089636 C43.3974785,0.000224089636 44.8586576,1.42879552 44.8586576,3.5005042 L44.8586576,14.4461625 C44.8586576,16.5178711 43.3974785,17.9464426 41.281288,17.9464426 L35.2086916,17.9464426 C33.0925011,17.9464426 31.631322,16.5178711 31.631322,14.4461625 L31.631322,3.5005042 C31.631322,1.42879552 33.0925011,0.000224089636 35.2086916,0.000224089636 L41.281288,0.000224089636 Z" id="Fill-3" fill="#FFFFFF"></path>
                    <path d="M78.2455703,14.4464986 C78.2455703,16.3803922 76.6446859,17.9467787 74.6682007,17.9467787 L68.8715794,17.9467787 C66.8962392,17.9467787 65.2942098,16.3803922 65.2942098,14.4464986 L65.2942098,0.0980392157 C67.298178,0.0980392157 68.92311,1.68795518 68.92311,3.6487395 L68.92311,13.7563025 C68.92311,14.2190476 69.3067268,14.5943978 69.7796633,14.5943978 L73.7601168,14.5943978 C74.2341984,14.5943978 74.6178152,14.2190476 74.6178152,13.7563025 L74.6178152,0.0980392157 C76.6217834,0.0980392157 78.2455703,1.68795518 78.2455703,3.6487395 L78.2455703,14.4464986 Z" id="Fill-5" fill="#FFFFFF"></path>
                    <path d="M5.28246032,1.11708683 L5.28246032,14.4952381 L12.8918141,14.4952381 C12.8918141,16.3473389 11.3584921,17.8487395 9.46560091,17.8487395 L1.65470522,17.8487395 L1.65470522,0.0985994398 L4.24154195,0.0985994398 C4.81639456,0.0985994398 5.28246032,0.554621849 5.28246032,1.11708683" id="Fill-7" fill="#FFFFFF"></path>
                    <g id="Group-11" transform="translate(0.000000, 0.019720)">
                        <mask id="mask-6" fill="white">
                            <use xlink:href="#path-5"></use>
                        </mask>
                        <g id="Clip-10"></g>
                        <path d="M4.58805669,3.61131653 L4.50102721,3.6292437 C3.43262585,3.6572549 2.4249161,3.30767507 1.63134467,2.68806723 C0.966027211,2.16929972 0.451866213,1.46117647 0.179326531,0.626442577 L-0.000458049887,0.0751820728 L3.65707029,0.0796638655 L4.58805669,3.61131653 Z" id="Fill-9" fill="#FFFFFF" mask="url(#mask-6)"></path>
                    </g>
                    <path d="M4.60030952,17.8444818 L0.0117947846,17.8489636 L0.191579365,17.2977031 C0.464119048,16.4629692 0.978280045,15.7548459 1.64359751,15.234958 C2.43716893,14.6164706 3.44487868,14.2668908 4.51213492,14.294902 L4.60030952,14.3128291 L4.60030952,17.8444818 Z" id="Fill-12" fill="#FFFFFF"></path>
                    <g id="Group-16" transform="translate(82.256236, 0.019720)">
                        <mask id="mask-8" fill="white">
                            <use xlink:href="#path-7"></use>
                        </mask>
                        <g id="Clip-15"></g>
                        <path d="M8.43809977,8.2140056 C8.99234014,8.2140056 9.29465306,7.91820728 9.29465306,7.37591036 L9.29465306,4.26890756 C9.29465306,3.72661064 8.99234014,3.43081232 8.43809977,3.43081232 L3.70071882,3.43081232 L3.70071882,8.2140056 L8.43809977,8.2140056 Z M9.34503855,0.0784313725 C11.3215238,0.0784313725 12.9235533,1.64593838 12.9235533,3.57983193 L12.9235533,8.06610644 C12.9235533,10 11.3215238,11.5663866 9.34503855,11.5663866 L3.70071882,11.5663866 L3.70071882,17.8285714 C1.69675057,17.8285714 0.0729637188,16.2397759 0.0729637188,14.2789916 L0.0729637188,0.0784313725 L9.34503855,0.0784313725 Z" id="Fill-14" fill="#FFFFFF" mask="url(#mask-8)"></path>
                    </g>
                    <path d="M85.257856,3.63103641 L85.1708265,3.64896359 C84.1024252,3.67697479 83.0947154,3.32739496 82.301144,2.70778711 C81.6358265,2.18901961 81.1216655,1.48089636 80.8491259,0.646162465 L80.6704864,0.0949019608 L84.3268696,0.0993837535 L85.257856,3.63103641 Z" id="Fill-17" fill="#FFFFFF"></path>
                    <path d="M52.5603084,13.3129412 L52.5603084,17.0003361 C52.5603084,17.4686835 52.1721111,17.8485154 51.693449,17.8485154 L48.9817937,17.8485154 L48.9817937,0.0983753501 L51.6900136,0.0983753501 C52.170966,0.0983753501 52.5603084,0.479327731 52.5603084,0.949915966 L52.5603084,8.43114846 L57.8049796,1.46420168 C58.4519751,0.605938375 59.4780068,0.0983753501 60.5681655,0.0983753501 L63.0920204,0.0983753501 L57.5232789,7.10005602 L63.3691406,17.8485154 L60.9643787,17.8485154 C59.9326213,17.8485154 58.984458,17.2905322 58.5012154,16.397535 L55.1047755,10.1319888 L52.5603084,13.3129412 Z" id="Fill-19" fill="#FFFFFF"></path>
                    <path d="M51.9670193,3.63103641 L51.8788447,3.64896359 C50.8115884,3.67697479 49.8038787,3.32739496 49.0103073,2.70778711 C48.3449898,2.18901961 47.8308288,1.48089636 47.5582891,0.646162465 L47.3785045,0.0949019608 L51.0360329,0.0993837535 L51.9670193,3.63103641 Z" id="Fill-21" fill="#FFFFFF"></path>
                    <path d="M51.2742188,17.8444818 L47.3670533,17.8489636 L47.5468379,17.2977031 C47.8182324,16.4629692 48.3335385,15.7548459 48.998856,15.234958 C49.7924274,14.6164706 50.7989921,14.2668908 51.8673934,14.294902 L51.9544229,14.3128291 L51.2742188,17.8444818 Z" id="Fill-23" fill="#FFFFFF"></path>
                </g>
            </g>
        </g>
    </g>
</svg>